# xmcd
#
# Track frame offsets: 
#        150
#        22767
#        41461
#        61089
#        78476
#        100510
#        123595
#        146243
#        167621
#        187361
#
# Disc length: 2745 seconds
#
# Revision: 0
# Processed by: cddbd v1.5.1PL0 Copyright (c) Steve Scherf et al.
# Submitted via: ExactAudioCopy v0.95a5
#
DISCID=7f0ab70a
DTITLE=Chiqui Rodríguez - Bachanato
DYEAR=2005
DGENRE=Latin
TTITLE0=Lavado Cerebral
TTITLE1=Te Voy A Regalar Mi Vida
TTITLE2=Porque Te Amo
TTITLE3=Ojos Verdes
TTITLE4=Vuélvete A Ir
TTITLE5=Ni De Aquí A La Esquina
TTITLE6=Sin Amor También Se Vive
TTITLE7=Tiro La Toalla
TTITLE8=Si No Te Tengo
TTITLE9=Te Voy A Regalar Mi Vida (Bachamenco)
EXTD=
EXTT0=
EXTT1=
EXTT2=
EXTT3=
EXTT4=
EXTT5=
EXTT6=
EXTT7=
EXTT8=
EXTT9=
PLAYORDER=
